HIERARCHY
ROOT Hips
{
	OFFSET -351.999878 -572.954773 89.312325
	CHANNELS 6 Xposition Yposition Zposition Zrotation Yrotation Xrotation
	JOINT Spine
	{
		OFFSET 0.000000 2.080078 8.814247
		CHANNELS 6 Xposition Yposition Zposition Zrotation Yrotation Xrotation
		JOINT Spine1
		{
			OFFSET 0.000000 0.000000 8.844139
			CHANNELS 6 Xposition Yposition Zposition Zrotation Yrotation Xrotation
			JOINT Spine2
			{
				OFFSET 0.000000 0.000000 11.682266
				CHANNELS 6 Xposition Yposition Zposition Zrotation Yrotation Xrotation
				JOINT Spine3
				{
					OFFSET 0.000000 0.000000 11.746696
					CHANNELS 6 Xposition Yposition Zposition Zrotation Yrotation Xrotation
					JOINT Neck
					{
						OFFSET 0.000000 0.000000 17.658264
						CHANNELS 6 Xposition Yposition Zposition Zrotation Yrotation Xrotation
						JOINT Neck1
						{
							OFFSET 0.000000 0.000000 5.101517
							CHANNELS 6 Xposition Yposition Zposition Zrotation Yrotation Xrotation
							JOINT Head
							{
								OFFSET 0.000000 0.000000 5.101517
								CHANNELS 6 Xposition Yposition Zposition Zrotation Yrotation Xrotation
								JOINT HeadEnd
								{
									OFFSET 0.000000 0.000000 11.655090
									CHANNELS 6 Xposition Yposition Zposition Zrotation Yrotation Xrotation
									End Site
									{
										OFFSET 0.000000 0.000000 0.100006
									}
								}
							}
						}
					}
					JOINT RightShoulder
					{
						OFFSET -2.625397 0.000000 11.175217
						CHANNELS 6 Xposition Yposition Zposition Zrotation Yrotation Xrotation
						JOINT RightArm
						{
							OFFSET 0.000000 0.000000 10.434708
							CHANNELS 6 Xposition Yposition Zposition Zrotation Yrotation Xrotation
							JOINT RightForeArm
							{
								OFFSET 0.000000 0.000000 29.628418
								CHANNELS 6 Xposition Yposition Zposition Zrotation Yrotation Xrotation
								JOINT RightHand
								{
									OFFSET 0.000000 0.000000 22.857605
									CHANNELS 6 Xposition Yposition Zposition Zrotation Yrotation Xrotation
									JOINT RightHandThumb1
									{
										OFFSET -2.867310 -2.944275 3.959564
										CHANNELS 6 Xposition Yposition Zposition Zrotation Yrotation Xrotation
										JOINT RightHandThumb2
										{
											OFFSET 0.000000 0.000000 3.350403
											CHANNELS 6 Xposition Yposition Zposition Zrotation Yrotation Xrotation
											JOINT RightHandThumb3
											{
												OFFSET 0.000000 0.000000 3.756516
												CHANNELS 6 Xposition Yposition Zposition Zrotation Yrotation Xrotation
												JOINT RightHandThumb4
												{
													OFFSET 0.000000 0.000000 3.147339
													CHANNELS 6 Xposition Yposition Zposition Zrotation Yrotation Xrotation
													End Site
													{
														OFFSET 0.000000 0.000000 0.100006
													}
												}
											}
										}
									}
									JOINT RightHandIndex1
									{
										OFFSET -0.086761 -2.345276 10.030899
										CHANNELS 6 Xposition Yposition Zposition Zrotation Yrotation Xrotation
										JOINT RightHandIndex2
										{
											OFFSET 0.000000 0.000000 4.061096
											CHANNELS 6 Xposition Yposition Zposition Zrotation Yrotation Xrotation
											JOINT RightHandIndex3
											{
												OFFSET 0.000000 0.000000 3.248871
												CHANNELS 6 Xposition Yposition Zposition Zrotation Yrotation Xrotation
												JOINT RightHandIndex4
												{
													OFFSET 0.000000 0.000000 2.639709
													CHANNELS 6 Xposition Yposition Zposition Zrotation Yrotation Xrotation
													End Site
													{
														OFFSET 0.000000 0.000000 0.100006
													}
												}
											}
										}
									}
									JOINT RightHandMiddle1
									{
										OFFSET 0.104095 -0.006775 9.502945
										CHANNELS 6 Xposition Yposition Zposition Zrotation Yrotation Xrotation
										JOINT RightHandMiddle2
										{
											OFFSET 0.000000 0.000000 4.568726
											CHANNELS 6 Xposition Yposition Zposition Zrotation Yrotation Xrotation
											JOINT RightHandMiddle3
											{
												OFFSET 0.000000 0.000000 3.654984
												CHANNELS 6 Xposition Yposition Zposition Zrotation Yrotation Xrotation
												JOINT RightHandMiddle4
												{
													OFFSET 0.000000 0.000000 2.741241
													CHANNELS 6 Xposition Yposition Zposition Zrotation Yrotation Xrotation
													End Site
													{
														OFFSET 0.000000 0.000000 0.100006
													}
												}
											}
										}
									}
									JOINT RightHandRing1
									{
										OFFSET 0.086761 2.267456 8.921707
										CHANNELS 6 Xposition Yposition Zposition Zrotation Yrotation Xrotation
										JOINT RightHandRing2
										{
											OFFSET 0.000000 0.000000 4.061096
											CHANNELS 6 Xposition Yposition Zposition Zrotation Yrotation Xrotation
											JOINT RightHandRing3
											{
												OFFSET 0.000000 0.000000 3.654984
												CHANNELS 6 Xposition Yposition Zposition Zrotation Yrotation Xrotation
												JOINT RightHandRing4
												{
													OFFSET 0.000000 0.000000 2.741241
													CHANNELS 6 Xposition Yposition Zposition Zrotation Yrotation Xrotation
													End Site
													{
														OFFSET 0.000000 0.000000 0.100006
													}
												}
											}
										}
									}
									JOINT RightHandPinky1
									{
										OFFSET -0.173492 4.467224 7.976990
										CHANNELS 6 Xposition Yposition Zposition Zrotation Yrotation Xrotation
										JOINT RightHandPinky2
										{
											OFFSET 0.000000 0.000000 3.350403
											CHANNELS 6 Xposition Yposition Zposition Zrotation Yrotation Xrotation
											JOINT RightHandPinky3
											{
												OFFSET 0.000000 0.000000 2.842758
												CHANNELS 6 Xposition Yposition Zposition Zrotation Yrotation Xrotation
												JOINT RightHandPinky4
												{
													OFFSET 0.000000 0.000000 2.639709
													CHANNELS 6 Xposition Yposition Zposition Zrotation Yrotation Xrotation
													End Site
													{
														OFFSET 0.000000 0.000000 0.100006
													}
												}
											}
										}
									}
									JOINT RightForeArmEnd
									{
										OFFSET 0.000000 0.000000 0.000000
										CHANNELS 6 Xposition Yposition Zposition Zrotation Yrotation Xrotation
										End Site
										{
											OFFSET 0.000000 0.000000 0.100006
										}
									}
								}
								JOINT RightArmEnd
								{
									OFFSET 0.000000 0.000000 0.000000
									CHANNELS 6 Xposition Yposition Zposition Zrotation Yrotation Xrotation
									End Site
									{
										OFFSET 0.000000 0.000000 0.100006
									}
								}
							}
						}
					}
					JOINT LeftShoulder
					{
						OFFSET 2.625397 0.000000 11.175217
						CHANNELS 6 Xposition Yposition Zposition Zrotation Yrotation Xrotation
						JOINT LeftArm
						{
							OFFSET 0.000000 0.000000 10.813629
							CHANNELS 6 Xposition Yposition Zposition Zrotation Yrotation Xrotation
							JOINT LeftForeArm
							{
								OFFSET 0.000000 0.000000 28.724777
								CHANNELS 6 Xposition Yposition Zposition Zrotation Yrotation Xrotation
								JOINT LeftHand
								{
									OFFSET 0.644379 0.328857 25.716171
									CHANNELS 6 Xposition Yposition Zposition Zrotation Yrotation Xrotation
									JOINT LeftHandThumb1
									{
										OFFSET 2.867310 -2.944275 3.959564
										CHANNELS 6 Xposition Yposition Zposition Zrotation Yrotation Xrotation
										JOINT LeftHandThumb2
										{
											OFFSET 0.000000 0.000000 3.350403
											CHANNELS 6 Xposition Yposition Zposition Zrotation Yrotation Xrotation
											JOINT LeftHandThumb3
											{
												OFFSET 0.000000 0.000000 3.756516
												CHANNELS 6 Xposition Yposition Zposition Zrotation Yrotation Xrotation
												JOINT LeftHandThumb4
												{
													OFFSET 0.000000 0.000000 3.100006
													CHANNELS 6 Xposition Yposition Zposition Zrotation Yrotation Xrotation
													End Site
													{
														OFFSET 0.000000 0.000000 0.100006
													}
												}
											}
										}
									}
									JOINT LeftHandIndex1
									{
										OFFSET 0.086761 -2.345276 10.030899
										CHANNELS 6 Xposition Yposition Zposition Zrotation Yrotation Xrotation
										JOINT LeftHandIndex2
										{
											OFFSET 0.000000 0.000000 4.061096
											CHANNELS 6 Xposition Yposition Zposition Zrotation Yrotation Xrotation
											JOINT LeftHandIndex3
											{
												OFFSET 0.000000 0.000000 3.248871
												CHANNELS 6 Xposition Yposition Zposition Zrotation Yrotation Xrotation
												JOINT LeftHandIndex4
												{
													OFFSET 0.000000 0.000000 2.639709
													CHANNELS 6 Xposition Yposition Zposition Zrotation Yrotation Xrotation
													End Site
													{
														OFFSET 0.000000 0.000000 0.100006
													}
												}
											}
										}
									}
									JOINT LeftHandMiddle1
									{
										OFFSET -0.104095 -0.006775 9.502945
										CHANNELS 6 Xposition Yposition Zposition Zrotation Yrotation Xrotation
										JOINT LeftHandMiddle2
										{
											OFFSET 0.000000 0.000000 4.568726
											CHANNELS 6 Xposition Yposition Zposition Zrotation Yrotation Xrotation
											JOINT LeftHandMiddle3
											{
												OFFSET 0.000000 0.000000 3.654984
												CHANNELS 6 Xposition Yposition Zposition Zrotation Yrotation Xrotation
												JOINT LeftHandMiddle4
												{
													OFFSET 0.000000 0.000000 2.741241
													CHANNELS 6 Xposition Yposition Zposition Zrotation Yrotation Xrotation
													End Site
													{
														OFFSET 0.000000 0.000000 0.100006
													}
												}
											}
										}
									}
									JOINT LeftHandRing1
									{
										OFFSET -0.086761 2.267456 8.921707
										CHANNELS 6 Xposition Yposition Zposition Zrotation Yrotation Xrotation
										JOINT LeftHandRing2
										{
											OFFSET 0.000000 0.000000 4.061096
											CHANNELS 6 Xposition Yposition Zposition Zrotation Yrotation Xrotation
											JOINT LeftHandRing3
											{
												OFFSET 0.000000 0.000000 3.654984
												CHANNELS 6 Xposition Yposition Zposition Zrotation Yrotation Xrotation
												JOINT LeftHandRing4
												{
													OFFSET 0.000000 0.000000 2.741241
													CHANNELS 6 Xposition Yposition Zposition Zrotation Yrotation Xrotation
													End Site
													{
														OFFSET 0.000000 0.000000 0.100006
													}
												}
											}
										}
									}
									JOINT LeftHandPinky1
									{
										OFFSET 0.173492 4.467224 7.976990
										CHANNELS 6 Xposition Yposition Zposition Zrotation Yrotation Xrotation
										JOINT LeftHandPinky2
										{
											OFFSET 0.000000 0.000000 3.350403
											CHANNELS 6 Xposition Yposition Zposition Zrotation Yrotation Xrotation
											JOINT LeftHandPinky3
											{
												OFFSET 0.000000 0.000000 2.842758
												CHANNELS 6 Xposition Yposition Zposition Zrotation Yrotation Xrotation
												JOINT LeftHandPinky4
												{
													OFFSET 0.000000 0.000000 2.639709
													CHANNELS 6 Xposition Yposition Zposition Zrotation Yrotation Xrotation
													End Site
													{
														OFFSET 0.000000 0.000000 0.100006
													}
												}
											}
										}
									}
									JOINT LeftForeArmEnd
									{
										OFFSET 0.000000 0.000000 0.000000
										CHANNELS 6 Xposition Yposition Zposition Zrotation Yrotation Xrotation
										End Site
										{
											OFFSET 0.000000 0.000000 0.100006
										}
									}
								}
								JOINT LeftArmEnd
								{
									OFFSET 0.000000 0.000000 0.000000
									CHANNELS 6 Xposition Yposition Zposition Zrotation Yrotation Xrotation
									End Site
									{
										OFFSET 0.000000 0.000000 0.100006
									}
								}
							}
						}
					}
				}
			}
		}
	}
	JOINT RightUpLeg
	{
		OFFSET -11.289948 0.000000 0.000000
		CHANNELS 6 Xposition Yposition Zposition Zrotation Yrotation Xrotation
		JOINT RightLeg
		{
			OFFSET 0.000000 0.000000 -38.200329
			CHANNELS 6 Xposition Yposition Zposition Zrotation Yrotation Xrotation
			JOINT RightFoot
			{
				OFFSET 0.000000 0.000000 -39.900856
				CHANNELS 6 Xposition Yposition Zposition Zrotation Yrotation Xrotation
				JOINT RightToeBase
				{
					OFFSET 0.000000 -15.261658 0.000002
					CHANNELS 6 Xposition Yposition Zposition Zrotation Yrotation Xrotation
					JOINT RightToeBaseEnd
					{
						OFFSET 0.000000 -7.370728 0.000000
						CHANNELS 6 Xposition Yposition Zposition Zrotation Yrotation Xrotation
						End Site
						{
							OFFSET 0.000000 0.000000 0.100000
						}
					}
				}
				JOINT RightLegEnd
				{
					OFFSET 0.000000 0.000000 0.000000
					CHANNELS 6 Xposition Yposition Zposition Zrotation Yrotation Xrotation
					End Site
					{
						OFFSET 0.000000 0.000000 0.100000
					}
				}
			}
			JOINT RightUpLegEnd
			{
				OFFSET 0.000000 0.000000 0.000000
				CHANNELS 6 Xposition Yposition Zposition Zrotation Yrotation Xrotation
				End Site
				{
					OFFSET 0.000000 0.000000 0.099998
				}
			}
		}
	}
	JOINT LeftUpLeg
	{
		OFFSET 11.315674 0.000000 0.000000
		CHANNELS 6 Xposition Yposition Zposition Zrotation Yrotation Xrotation
		JOINT LeftLeg
		{
			OFFSET 0.000000 0.000000 -38.200329
			CHANNELS 6 Xposition Yposition Zposition Zrotation Yrotation Xrotation
			JOINT LeftFoot
			{
				OFFSET 0.000000 0.000000 -39.900856
				CHANNELS 6 Xposition Yposition Zposition Zrotation Yrotation Xrotation
				JOINT LeftToeBase
				{
					OFFSET 0.000000 -15.261658 0.000002
					CHANNELS 6 Xposition Yposition Zposition Zrotation Yrotation Xrotation
					JOINT LeftToeBaseEnd
					{
						OFFSET 0.000000 -7.539978 0.000000
						CHANNELS 6 Xposition Yposition Zposition Zrotation Yrotation Xrotation
						End Site
						{
							OFFSET 0.000000 0.000000 0.100000
						}
					}
				}
				JOINT LeftLegEnd
				{
					OFFSET 0.000000 0.000000 0.000000
					CHANNELS 6 Xposition Yposition Zposition Zrotation Yrotation Xrotation
					End Site
					{
						OFFSET 0.000000 0.000000 0.100000
					}
				}
			}
			JOINT LeftUpLegEnd
			{
				OFFSET 0.000000 0.000000 0.000000
				CHANNELS 6 Xposition Yposition Zposition Zrotation Yrotation Xrotation
				End Site
				{
					OFFSET 0.000000 0.000000 0.099998
				}
			}
		}
	}
}
MOTION
Frames: 2
Frame Time: 0.016667
-22.626373 -6.235474 83.449493 48.917658 9.076482 -5.754362 0.000015 2.080085 8.814260 1.049065 -3.729799 10.509063 0.000005 -0.000024 8.844149 1.121463 0.379588 5.660173 -0.000008 -0.000004 11.682269 7.775971 1.134721 3.626987 -0.000000 0.000026 11.746689 4.424966 0.201011 1.336165 0.000004 0.000003 17.658268 -5.921433 -15.750039 -4.124434 -0.000000 0.000003 5.101485 -1.710868 -0.475120 -7.643719 -0.000008 -0.000001 5.101540 -0.952627 -0.189521 -18.877883 -0.000013 -0.000001 11.655087 0.000000 -0.000000 0.000000 -2.625393 0.000027 11.175241 11.078395 -83.073166 -0.240714 0.000053 -0.000015 10.434700 44.328532 -60.428159 -56.861352 -0.000002 -0.000008 29.628422 29.034823 -0.850261 93.393247 -0.000031 0.000165 22.857635 -2.890614 44.566339 12.784810 -2.867346 -2.944275 3.959534 32.925846 -27.761780 36.871270 -0.000015 -0.000031 3.350407 -35.734986 9.847275 -60.076739 -0.000008 -0.000008 3.756447 -23.901632 10.991199 -41.110806 -0.000004 -0.000006 3.147349 -0.000001 0.000001 -0.000001 -0.086765 -2.345270 10.030876 -118.448485 -69.027558 119.601066 -0.000011 -0.000004 4.061073 -13.917756 -68.595979 21.010820 -0.000019 -0.000006 3.248863 -14.417792 -68.596013 21.010862 0.000010 0.000008 2.639698 -0.000002 0.000000 -0.000000 0.104099 -0.006772 9.502945 -119.844330 -74.515103 125.071665 -0.000006 0.000003 4.568735 -4.672200 -68.396790 7.605125 -0.000008 -0.000084 3.654959 -5.172191 -68.396743 7.609624 -0.000008 0.000063 2.741248 -0.000002 -0.000001 -0.000001 0.086700 2.267456 8.921698 -158.087010 -75.598986 168.292856 0.000015 -0.000031 4.061104 6.532922 -71.397272 -10.465763 -0.000010 -0.000005 3.654984 7.532881 -71.397265 -10.466900 0.000012 0.000004 2.741239 -0.000002 0.000000 0.000000 -0.173538 4.467262 7.976978 170.068814 -74.090101 -154.432544 0.000000 -0.000019 3.350418 18.262809 -68.427834 -29.448852 -0.000031 -0.000023 2.842766 20.262798 -68.427834 -29.448880 -0.000004 0.000004 2.639710 -0.000000 -0.000002 -0.000004 -0.000032 -0.000006 -0.000011 0.000001 0.000001 -0.000001 -0.000039 -0.000004 -0.000006 0.000000 -0.000002 0.000001 2.625376 0.000025 11.175226 -3.100423 83.728229 -0.095225 -0.000025 -0.000075 10.813629 -16.517283 85.218317 -36.574809 -0.000015 -0.000092 28.724758 -22.541159 0.741224 104.097499 0.644371 0.328898 25.716179 1.995273 -49.801986 11.466312 2.867279 -2.944336 3.959549 -33.873049 30.105391 33.737958 -0.000046 -0.000031 3.350456 40.476756 -8.234722 -67.904272 -0.000069 -0.000023 3.756523 27.406153 -11.056966 -46.697600 -0.000022 0.000016 3.100005 -0.000002 0.000001 -0.000001 0.086807 -2.345250 10.030952 -2.812590 110.200738 -14.450168 0.000000 -0.000006 4.061111 -25.871951 75.728630 -33.539313 -0.000015 0.000000 3.248928 -26.371878 75.728609 -33.547096 -0.000017 -0.000018 2.639715 0.000003 0.000002 0.000000 -0.104126 -0.006783 9.502960 162.440832 69.908038 158.282804 0.000042 -0.000084 4.568798 -9.143349 76.166240 -12.295451 0.000010 -0.000043 3.654989 -9.643328 76.166253 -12.300316 0.000012 -0.000006 2.741247 0.000001 -0.000003 -0.000001 -0.086739 2.267447 8.921776 150.454123 61.611435 154.548644 -0.000015 -0.000021 4.061138 15.735533 79.833956 19.951232 0.000011 -0.000004 3.655018 16.730215 79.834236 19.939416 -0.000041 -0.000007 2.741255 0.000001 0.000000 0.000000 0.173477 4.467192 7.976990 136.534443 57.275562 149.244537 0.000015 -0.000034 3.350445 39.745171 76.129698 51.920127 -0.000023 -0.000031 2.842789 41.745208 76.129719 51.929208 -0.000034 -0.000006 2.639699 -0.000000 -0.000003 -0.000001 -0.000009 0.000012 0.000004 -0.000002 0.000001 -0.000001 -0.000019 -0.000008 -0.000007 0.000001 0.000002 -0.000003 -11.289851 0.000029 0.000013 -29.168077 4.341302 15.706334 0.000031 0.000103 -38.200310 -1.729140 0.610297 19.427334 -0.000017 -0.000086 -39.900875 -26.736511 -15.774412 13.980865 0.000006 -15.261700 0.000027 3.359166 -0.134629 -19.088535 -0.000014 -7.370670 0.000001 0.000001 0.000001 0.000002 -0.000033 0.000009 -0.000001 -0.000001 -0.000000 -0.000002 0.000071 0.000068 -0.000001 -0.000001 0.000001 -0.000001 11.315714 -0.000015 0.000000 -24.298799 -22.363305 -18.353856 -0.000002 0.000042 -38.200306 1.098193 -0.670218 31.391153 0.000003 -0.000014 -39.900845 3.775563 8.578407 15.468382 0.000033 -15.261729 0.000008 -0.323563 -1.937930 -20.732597 -0.000005 -7.540015 -0.000001 -0.000004 0.000002 0.000001 0.000013 0.000010 -0.000000 -0.000002 -0.000001 0.000002 -0.000013 0.000017 0.000001 -0.000003 0.000000 -0.000000 
-21.607574 -6.432800 83.238022 49.887377 9.282421 -5.468839 -0.000002 2.080057 8.814259 1.124192 -3.523116 10.626943 0.000004 -0.000025 8.844149 1.181184 0.461029 5.760734 0.000005 0.000011 11.682274 8.091294 1.295414 3.847928 0.000007 -0.000022 11.746695 4.540837 0.397345 1.368483 0.000023 0.000006 17.658241 -6.634391 -16.557927 -4.817603 0.000001 -0.000024 5.101520 -2.156624 -0.571064 -8.320394 -0.000006 -0.000006 5.101548 -0.902374 -0.337346 -18.807853 -0.000006 0.000003 11.655070 -0.000000 0.000000 0.000001 -2.625381 0.000003 11.175223 11.139958 -83.349632 -0.256242 -0.000008 0.000015 10.434700 44.111981 -60.453738 -56.193865 0.000029 -0.000008 29.628414 29.090401 -0.846278 93.360572 -0.000015 0.000062 22.857597 -3.056078 44.946135 12.822908 -2.867321 -2.944229 3.959534 32.925856 -27.761773 36.871263 -0.000015 0.000015 3.350384 -35.734983 9.847275 -60.076746 -0.000015 -0.000008 3.756546 -23.901636 10.991197 -41.110813 -0.000000 0.000000 3.147354 0.000001 0.000001 -0.000001 -0.086781 -2.345278 10.030888 -119.142391 -68.888660 120.305094 -0.000023 0.000008 4.061111 -14.117428 -68.783844 21.225144 -0.000015 0.000072 3.248856 -14.617445 -68.783884 21.225151 -0.000008 0.000005 2.639696 -0.000002 0.000001 0.000003 0.104088 -0.006794 9.502949 -120.672627 -74.381402 125.865674 -0.000002 0.000012 4.568737 -4.728809 -68.576137 7.664912 0.000000 -0.000009 3.654970 -5.230759 -68.576103 7.670377 -0.000004 -0.000006 2.741246 0.000003 0.000000 -0.000000 0.086739 2.267483 8.921705 -158.351010 -75.436011 168.470577 -0.000019 0.000028 4.061108 6.605597 -71.522066 -10.540239 -0.000011 0.000014 3.654984 7.574976 -71.522995 -10.513095 0.000003 -0.000006 2.741236 -0.000000 -0.000001 -0.000003 -0.173508 4.467260 7.977016 170.080439 -73.967131 -154.630989 -0.000031 0.000000 3.350433 18.410196 -68.523299 -29.607296 0.000008 0.000008 2.842796 20.410174 -68.523306 -29.607279 -0.000009 -0.000002 2.639702 0.000001 0.000001 -0.000000 -0.000017 -0.000018 -0.000035 0.000003 -0.000000 -0.000001 -0.000000 0.000018 -0.000012 -0.000002 0.000001 0.000000 2.625374 -0.000005 11.175236 -3.544756 83.885651 -0.100269 0.000006 -0.000021 10.813612 -12.770803 84.754451 -32.339638 -0.000019 0.000031 28.724768 -22.350332 0.715591 103.367536 0.644348 0.328909 25.716148 1.860740 -49.831821 11.337572 2.867185 -2.944336 3.959534 -33.963280 30.300796 33.475594 -0.000008 -0.000015 3.350430 40.860148 -8.071860 -68.548475 -0.000038 -0.000031 3.756516 27.698143 -11.047378 -47.163064 -0.000054 0.000011 3.100005 -0.000001 0.000002 0.000000 0.086800 -2.345301 10.030926 -2.710214 110.534966 -14.404959 0.000000 0.000023 4.061150 -26.407378 75.924369 -34.081117 0.000008 0.000000 3.248894 -26.907465 75.924396 -34.091732 -0.000036 0.000002 2.639734 0.000003 -0.000003 -0.000003 -0.104141 -0.006784 9.502960 162.704887 69.653224 158.481043 0.000010 -0.000050 4.568756 -9.315710 76.352772 -12.470027 -0.000023 -0.000034 3.655014 -9.815744 76.352793 -12.475623 -0.000023 -0.000009 2.741248 -0.000001 0.000000 -0.000002 -0.086777 2.267434 8.921776 150.602789 61.491975 154.680152 -0.000008 0.000008 4.061131 15.937125 79.924189 20.155048 -0.000002 -0.000025 3.655045 16.910792 79.925569 20.122361 -0.000033 -0.000000 2.741256 -0.000001 0.000002 -0.000002 0.173477 4.467154 7.976959 136.555330 57.270965 149.407219 0.000015 0.000019 3.350441 39.841859 76.147839 52.019639 -0.000019 0.000015 2.842789 41.842039 76.147860 52.028140 0.000006 -0.000005 2.639697 0.000001 -0.000002 0.000002 -0.000036 0.000016 -0.000006 -0.000003 -0.000001 -0.000000 0.000004 -0.000004 0.000006 -0.000000 0.000001 -0.000000 -11.289908 0.000031 0.000017 -27.313677 4.533293 16.831500 0.000024 0.000095 -38.200310 -1.868641 0.633570 18.727004 -0.000019 -0.000009 -39.900875 -25.201214 -15.925001 14.759714 0.000023 -15.261774 0.000045 3.419265 -0.280967 -20.262053 0.000000 -7.370667 0.000000 0.000000 -0.000000 0.000000 0.000033 0.000004 0.000000 -0.000001 -0.000000 0.000000 0.000023 0.000078 -0.000007 -0.000003 -0.000002 -0.000000 11.315706 0.000019 -0.000008 -24.287890 -22.090763 -19.575992 -0.000051 0.000062 -38.200291 1.130015 -0.733375 32.979138 0.000004 0.000087 -39.900856 2.714061 8.564028 16.806693 0.000015 -15.261703 0.000027 -0.334305 -1.824538 -20.537395 0.000007 -7.539969 -0.000001 -0.000001 0.000000 -0.000000 0.000009 0.000021 0.000000 -0.000003 -0.000002 0.000004 -0.000018 0.000116 -0.000009 0.000001 -0.000000 -0.000000 
